# xmcd
#
# Track frame offsets: 
#        150
#        17580
#        30857
#        41732
#        55680
#        69112
#        81142
#        95692
#        110470
#        124442
#        146025
#        164010
#        178250
#        191765
#        225257
#
# Disc length: 3191 seconds
#
# Revision: 1
# Processed by: cddbd v1.5.2PL0 Copyright (c) Steve Scherf et al.
# Submitted via: ExactAudioCopy v1.5
#
DISCID=c60c750f
DTITLE=Various Artist - Jazz and TZAZ 165 [Jazz Bistro]
DYEAR=2006
DGENRE=Jazz
TTITLE0=WILBUR DE PARIS - In aPersian Market
TTITLE1=DJANGO REINHARDT - Shine
TTITLE2=REX STEWART AND HIS FEETWARMERS - Monmartre
TTITLE3=EMILE CARRARA - Le CharmeurDes Serpentes
TTITLE4=DUKE ELLINGTON - DigaDiga Do
TTITLE5=ANDREW SISTERS - Money Is The Root of All Evil
TTITLE6=ARTIE SHAW - Begin Tha Beguine
TTITLE7=ROY ELDRIDGE AND HIS LITTLE JAZZ - Une Petite Laitue
TTITLE8=LOUIS ARMSTRONG - C' Est Si Bon
TTITLE9=LESTER YOUNG TRIO WITH NAT KING COLE - Tea For Two
TTITLE10=MODERN JAZZ QUARTET - Delauney's Dilemma
TTITLE11=NAT KING COLE - Swwet Loraine
TTITLE12=GUS VISEUR - Nuages
TTITLE13=LOUIS ARMSTRONG ALL STARS - Otchi Tchor-Ni-Ya
TTITLE14=SIDNEY BECHET AND CLAUDE LUTER - Petite Fleur
EXTD=YEAR: 2006
EXTT0=
EXTT1=
EXTT2=
EXTT3=
EXTT4=
EXTT5=
EXTT6=
EXTT7=
EXTT8=
EXTT9=
EXTT10=
EXTT11=
EXTT12=
EXTT13=
EXTT14=
PLAYORDER=
